<svg width="20" height="20" viewBox="0 0 20 20" fill="none" xmlns="http://www.w3.org/2000/svg">
<path d="M17.4047 10.975C17.4544 10.6827 17.4544 10.3413 17.4544 10C17.4544 9.65865 17.4047 9.36634 17.4047 9.025L19.4985 7.41634C19.6981 7.27019 19.7478 7.02648 19.5983 6.78269L17.6038 3.41875C17.504 3.22356 17.2051 3.12648 17.0054 3.22356L14.5123 4.19861C14.0136 3.8087 13.4157 3.46731 12.8173 3.22356L12.4681 0.639952C12.4185 0.445233 12.2188 0.250046 11.9695 0.250046H7.98052C7.73124 0.250046 7.5316 0.445233 7.48191 0.639952L7.0831 3.22356C6.48464 3.46731 5.93635 3.80865 5.38758 4.19861L2.89449 3.22356C2.64516 3.12648 2.39583 3.22356 2.29604 3.41875L0.301551 6.78273C0.202222 6.97741 0.251816 7.27019 0.401347 7.41639L2.54546 9.025C2.54546 9.36634 2.49577 9.65865 2.49577 10C2.49577 10.3413 2.54546 10.6337 2.54546 10.975L0.451644 12.5837C0.251957 12.7298 0.202363 12.9735 0.351801 13.2173L2.34628 16.5812C2.44613 16.7764 2.7451 16.8735 2.94474 16.7764L5.43788 15.8014C5.93649 16.1913 6.53447 16.5327 7.13288 16.7764L7.53169 19.36C7.5818 19.6038 7.78097 19.75 8.0303 19.75H12.0193C12.2686 19.75 12.4682 19.5548 12.5179 19.36L12.9172 16.7764C13.5152 16.5327 14.064 16.1913 14.6122 15.8014L17.1053 16.7764C17.3546 16.8735 17.604 16.7764 17.7038 16.5812L19.6983 13.2173C19.7981 13.0226 19.748 12.7298 19.5984 12.5836L17.4047 10.975ZM9.97505 13.4125C8.03025 13.4125 6.48474 11.9015 6.48474 10C6.48474 8.09851 8.03025 6.5875 9.97505 6.5875C11.9198 6.5875 13.4654 8.09851 13.4654 10C13.4654 11.9015 11.9198 13.4125 9.97505 13.4125Z" fill="#A3AED0"/>
</svg>
