<svg width="110" height="35" viewBox="0 0 110 35" fill="none" xmlns="http://www.w3.org/2000/svg">
<path d="M99.3843 15.5634H96.4792C96.2976 15.5634 96.2371 15.5028 96.2371 15.3213V5.39547C96.2371 5.2139 96.2976 5.15337 96.4792 5.15337H99.3843C99.9506 5.13837 100.512 5.26304 101.019 5.51637C101.525 5.76971 101.962 6.14391 102.289 6.60593C103.069 7.74216 103.452 9.10358 103.379 10.4794C103.453 11.8178 103.069 13.1415 102.289 14.2319C101.936 14.6576 101.492 14.9983 100.989 15.2288C100.486 15.4593 99.9374 15.5737 99.3843 15.5634V15.5634ZM95.6924 34.2651C95.7719 34.2672 95.851 34.2521 95.9241 34.2207C95.9973 34.1894 96.0628 34.1426 96.1161 34.0835C96.1751 34.0302 96.222 33.9647 96.2533 33.8916C96.2846 33.8184 96.2998 33.7394 96.2976 33.6598V20.2237C96.2976 20.0421 96.3582 19.9816 96.5397 19.9816H100.655C101.8 20.0235 102.939 19.8056 103.987 19.3444C105.035 18.8832 105.965 18.1906 106.708 17.3185C108.221 15.5634 109.008 13.203 109.008 10.2978C109.033 8.50366 108.661 6.72603 107.918 5.09285C107.266 3.65704 106.216 2.43862 104.892 1.5825C103.538 0.719769 101.958 0.277506 100.353 0.311515H91.2742C91.1947 0.30938 91.1156 0.324504 91.0425 0.355849C90.9693 0.387193 90.9039 0.434013 90.8505 0.493085C90.7915 0.546395 90.7447 0.611872 90.7133 0.685009C90.682 0.758146 90.6668 0.837206 90.669 0.916748V33.7203C90.6668 33.7999 90.682 33.8789 90.7133 33.9521C90.7447 34.0252 90.7915 34.0907 90.8505 34.144C90.9039 34.2031 90.9693 34.2499 91.0425 34.2812C91.1156 34.3126 91.1947 34.3277 91.2742 34.3256L95.6924 34.2651ZM53.8709 18.8316C54.4554 18.8093 55.0365 18.9299 55.5639 19.183C56.0912 19.4362 56.5488 19.8141 56.897 20.2842C57.6764 21.4431 58.0586 22.8235 57.9864 24.2182C58.0695 25.5763 57.6851 26.9219 56.897 28.0312C56.5324 28.4749 56.0685 28.8266 55.5428 29.0579C55.0171 29.2892 54.4443 29.3936 53.8709 29.3627H51.0868C50.9657 29.3627 50.8447 29.3021 50.8447 29.1811V19.0737C50.8447 18.9527 50.9052 18.8316 51.0263 18.8316H53.8709ZM72.391 10.2373C72.4705 10.2352 72.5496 10.2503 72.6227 10.2817C72.6958 10.313 72.7613 10.3598 72.8146 10.4189C72.8737 10.4722 72.9205 10.5377 72.9519 10.6108C72.9832 10.684 72.9983 10.763 72.9962 10.8426V25.6708C72.9351 26.8015 73.2784 27.9171 73.9646 28.818C74.2686 29.1994 74.6555 29.5066 75.0959 29.7164C75.5364 29.9261 76.0188 30.0328 76.5065 30.0284C76.9954 30.0393 77.4799 29.9355 77.9214 29.7252C78.3628 29.515 78.7488 29.2043 79.0485 28.818C79.7086 27.9039 80.049 26.7978 80.0169 25.6708V10.8426C80.0148 10.763 80.0299 10.684 80.0612 10.6108C80.0926 10.5377 80.1394 10.4722 80.1985 10.4189C80.2518 10.3598 80.3172 10.313 80.3904 10.2817C80.4635 10.2503 80.5426 10.2352 80.6221 10.2373H85.1008C85.1804 10.2352 85.2594 10.2503 85.3326 10.2817C85.4057 10.313 85.4712 10.3598 85.5245 10.4189C85.5836 10.4722 85.6304 10.5377 85.6617 10.6108C85.6931 10.684 85.7082 10.763 85.7061 10.8426V25.0655C85.7061 27.9706 84.8587 30.3916 83.1641 32.1467C82.3037 33.0334 81.2662 33.7288 80.1191 34.1876C78.972 34.6465 77.7411 34.8584 76.5065 34.8098C75.272 34.8584 74.0411 34.6465 72.894 34.1876C71.7469 33.7288 70.7094 33.0334 69.849 32.1467C68.1543 30.3916 67.3675 27.9706 67.3675 25.0655V10.8426C67.3654 10.763 67.3805 10.684 67.4119 10.6108C67.4432 10.5377 67.49 10.4722 67.5491 10.4189C67.6024 10.3598 67.6679 10.313 67.741 10.2817C67.8142 10.2503 67.8932 10.2352 67.9728 10.2373H72.391ZM53.5077 14.716H51.0263C50.8447 14.716 50.7842 14.6555 50.7842 14.474V5.45599C50.7842 5.27442 50.8447 5.2139 51.0263 5.2139H53.5077C54.0847 5.18003 54.6618 5.27672 55.1963 5.49677C55.7307 5.71683 56.2086 6.05458 56.5944 6.48489C57.374 7.50601 57.7607 8.77333 57.6838 10.0558C57.752 11.2999 57.3647 12.5262 56.5944 13.5056C56.1961 13.9159 55.7146 14.2363 55.1821 14.4451C54.6497 14.6539 54.0788 14.7463 53.5077 14.716V14.716ZM54.2945 34.2651C57.0786 34.2651 59.3179 33.4782 61.0731 31.8441C62.8283 30.21 63.6756 27.9706 63.6756 24.9445C63.7234 23.2648 63.3488 21.6 62.5862 20.1026C61.8828 18.785 60.8639 17.6621 59.6206 16.8344C59.4995 16.7133 59.56 16.6528 59.7416 16.5317C62.102 15.1397 63.252 12.7188 63.252 9.39C63.252 6.42436 62.4046 4.185 60.6495 2.6114C58.8943 1.03779 56.4734 0.311515 53.4472 0.311515H45.8213C45.7417 0.30938 45.6627 0.324504 45.5895 0.355849C45.5164 0.387193 45.4509 0.434013 45.3976 0.493085C45.3385 0.546395 45.2917 0.611872 45.2604 0.685009C45.229 0.758146 45.2139 0.837206 45.216 0.916748V33.6598C45.2139 33.7394 45.229 33.8184 45.2604 33.8916C45.2917 33.9647 45.3385 34.0302 45.3976 34.0835C45.4509 34.1426 45.5164 34.1894 45.5895 34.2207C45.6627 34.2521 45.7417 34.2672 45.8213 34.2651H54.2945ZM30.9931 34.6282C32.2269 34.6708 33.456 34.4561 34.6022 33.9976C35.7484 33.5391 36.7866 32.8469 37.6506 31.9652C39.3453 30.1495 40.1926 27.7891 40.1926 24.8839V0.916748C40.1947 0.837206 40.1796 0.758146 40.1483 0.685009C40.1169 0.611872 40.0701 0.546395 40.011 0.493085C39.9577 0.434013 39.8922 0.387193 39.8191 0.355849C39.746 0.324504 39.6669 0.30938 39.5874 0.311515H35.1086C35.0291 0.30938 34.95 0.324504 34.8769 0.355849C34.8038 0.387193 34.7383 0.434013 34.685 0.493085C34.6259 0.546395 34.5791 0.611872 34.5478 0.685009C34.5164 0.758146 34.5013 0.837206 34.5034 0.916748V25.4287C34.5645 26.5594 34.2212 27.675 33.5351 28.5759C33.231 28.9573 32.8441 29.2646 32.4037 29.4743C31.9632 29.684 31.4809 29.7907 30.9931 29.7863C30.5043 29.7972 30.0197 29.6934 29.5783 29.4832C29.1368 29.2729 28.7508 28.9622 28.4511 28.5759C27.791 27.6618 27.4506 26.5557 27.4827 25.4287V0.916748C27.4849 0.837206 27.4697 0.758146 27.4384 0.685009C27.407 0.611872 27.3602 0.546395 27.3012 0.493085C27.2478 0.434013 27.1824 0.387193 27.1092 0.355849C27.0361 0.324504 26.957 0.30938 26.8775 0.311515H22.3988C22.3192 0.30938 22.2402 0.324504 22.167 0.355849C22.0939 0.387193 22.0284 0.434013 21.9751 0.493085C21.883 0.614081 21.8398 0.765334 21.8541 0.916748V24.8234C21.8541 27.7285 22.7014 30.1495 24.3355 31.9046C25.9696 33.6598 28.209 34.6282 30.9931 34.6282V34.6282ZM9.02313 34.6282C10.2143 34.6744 11.4025 34.4783 12.5157 34.0518C13.6289 33.6253 14.6438 32.9772 15.4991 32.1467C16.3353 31.2707 16.9861 30.2348 17.4125 29.1012C17.8389 27.9677 18.0321 26.7597 17.9806 25.5497C18.0067 24.1904 17.7166 22.8437 17.1333 21.6157C16.5507 20.4795 15.7722 19.455 14.8334 18.5895C13.4105 17.314 11.9151 16.1217 10.3547 15.0187C8.92943 14.0753 7.62812 12.957 6.48117 11.6899C5.81387 10.8491 5.47027 9.79682 5.51279 8.72424C5.45965 7.67864 5.78159 6.64842 6.42064 5.81913C6.70702 5.47594 7.06946 5.20425 7.47921 5.02564C7.88895 4.84704 8.3347 4.76643 8.78104 4.79023C9.25666 4.76817 9.73059 4.86119 10.1626 5.06138C10.5946 5.26157 10.9719 5.56303 11.2625 5.94018C11.9312 6.80359 12.2741 7.87511 12.2309 8.96634V10.2373C12.2287 10.3169 12.2439 10.3959 12.2752 10.4691C12.3065 10.5422 12.3534 10.6077 12.4124 10.661C12.4657 10.7201 12.5312 10.7669 12.6044 10.7982C12.6775 10.8296 12.7566 10.8447 12.8361 10.8426H17.1938C17.2733 10.8447 17.3524 10.8296 17.4255 10.7982C17.4987 10.7669 17.5641 10.7201 17.6174 10.661C17.6765 10.6077 17.7233 10.5422 17.7547 10.4691C17.786 10.3959 17.8011 10.3169 17.799 10.2373V9.08738C17.8505 7.87738 17.6573 6.66941 17.231 5.53584C16.8046 4.40228 16.1538 3.36643 15.3176 2.49035C14.4623 1.65994 13.4473 1.01182 12.3341 0.585282C11.221 0.15874 10.0328 -0.037349 8.84157 0.0088992C7.66901 -0.0437819 6.49772 0.13783 5.39617 0.543118C4.29462 0.948405 3.28492 1.56923 2.42611 2.36931C0.791978 3.94291 0.00517604 6.06122 0.00517604 8.78477C-0.0396923 10.3147 0.292894 11.8321 0.973551 13.203C1.61134 14.424 2.45023 15.5288 3.45501 16.4712C4.68604 17.5734 5.97933 18.604 7.32849 19.5579C8.39763 20.2906 9.42792 21.0785 10.4152 21.9183C11.0177 22.411 11.5298 23.0049 11.9283 23.6735C12.3063 24.336 12.4947 25.0898 12.473 25.8523C12.5359 26.9092 12.189 27.9497 11.5046 28.7574C11.1971 29.1111 10.8152 29.3922 10.3861 29.5806C9.95702 29.7689 9.49155 29.8599 9.02313 29.8469C8.55626 29.8683 8.09127 29.7747 7.6691 29.5741C7.24693 29.3736 6.88055 29.0724 6.6022 28.6969C5.95158 27.8241 5.61081 26.7591 5.63385 25.6708V24.7024C5.63598 24.6228 5.62085 24.5438 5.5895 24.4706C5.55816 24.3975 5.51134 24.332 5.45227 24.2787C5.39896 24.2196 5.33348 24.1728 5.26034 24.1415C5.18721 24.1101 5.10816 24.095 5.02862 24.0971H0.610408C0.530866 24.095 0.451818 24.1101 0.378681 24.1415C0.305544 24.1728 0.240067 24.2196 0.186757 24.2787C0.127685 24.332 0.080849 24.3975 0.0495046 24.4706C0.0181602 24.5438 0.0030402 24.6228 0.00517604 24.7024V25.9734C-0.0354729 27.1458 0.163644 28.3141 0.590331 29.4068C1.01702 30.4996 1.66229 31.4937 2.48663 32.3283C4.29647 33.8935 6.63193 34.7153 9.02313 34.6282V34.6282Z" fill="#2368FF"/>
<path fill-rule="evenodd" clip-rule="evenodd" d="M67.9125 0.553619H72.3307C72.4912 0.553619 72.6451 0.617385 72.7586 0.730888C72.8721 0.844391 72.9359 0.998334 72.9359 1.15885V4.79025C72.9359 4.95076 72.8721 5.10471 72.7586 5.21821C72.6451 5.33171 72.4912 5.39548 72.3307 5.39548H67.9125C67.752 5.39548 67.598 5.33171 67.4845 5.21821C67.371 5.10471 67.3073 4.95076 67.3073 4.79025V1.15885C67.3185 1.00205 67.3859 0.854555 67.497 0.743396C67.6082 0.632237 67.7557 0.564862 67.9125 0.553619Z" fill="#2368FF"/>
<path fill-rule="evenodd" clip-rule="evenodd" d="M80.6224 0.553619H85.0406C85.2011 0.553619 85.355 0.617385 85.4685 0.730888C85.582 0.844391 85.6458 0.998334 85.6458 1.15885V4.79025C85.6458 4.95076 85.582 5.10471 85.4685 5.21821C85.355 5.33171 85.2011 5.39548 85.0406 5.39548H80.6224C80.4619 5.39548 80.3079 5.33171 80.1944 5.21821C80.0809 5.10471 80.0172 4.95076 80.0172 4.79025V1.15885C80.0284 1.00205 80.0958 0.854555 80.2069 0.743396C80.3181 0.632237 80.4656 0.564862 80.6224 0.553619Z" fill="#2368FF"/>
</svg>
