<svg width="16" height="12" viewBox="0 0 16 12" fill="none" xmlns="http://www.w3.org/2000/svg">
<path fill-rule="evenodd" clip-rule="evenodd" d="M8.35159 0.351588C8.57662 0.126623 8.88179 0.000244141 9.19999 0.000244141C9.51819 0.000244141 9.82335 0.126623 10.0484 0.351588L14.8484 5.15159C15.0734 5.37662 15.1997 5.68179 15.1997 5.99999C15.1997 6.31818 15.0734 6.62335 14.8484 6.84839L10.0484 11.6484C9.82207 11.867 9.51894 11.9879 9.20431 11.9852C8.88967 11.9825 8.5887 11.8563 8.36621 11.6338C8.14372 11.4113 8.01751 11.1103 8.01478 10.7957C8.01205 10.481 8.133 10.1779 8.35159 9.95159L11.1032 7.19999H1.99999C1.68173 7.19999 1.3765 7.07356 1.15146 6.84852C0.926416 6.62347 0.799988 6.31825 0.799988 5.99999C0.799988 5.68173 0.926416 5.3765 1.15146 5.15146C1.3765 4.92642 1.68173 4.79999 1.99999 4.79999H11.1032L8.35159 2.04839C8.12662 1.82335 8.00024 1.51818 8.00024 1.19999C8.00024 0.881791 8.12662 0.576621 8.35159 0.351588Z" fill="#9CA3B4"/>
</svg>
