<svg width="20" height="20" viewBox="0 0 20 20" fill="none" xmlns="http://www.w3.org/2000/svg">
<path fill-rule="evenodd" clip-rule="evenodd" d="M1.0572 1.0572C1.5779 0.536497 2.42212 0.536497 2.94281 1.0572L10 8.11439L17.0572 1.0572C17.5779 0.536497 18.4221 0.536497 18.9428 1.0572C19.4635 1.5779 19.4635 2.42212 18.9428 2.94281L11.8856 10L18.9428 17.0572C19.4635 17.5779 19.4635 18.4221 18.9428 18.9428C18.4221 19.4635 17.5779 19.4635 17.0572 18.9428L10 11.8856L2.94281 18.9428C2.42212 19.4635 1.5779 19.4635 1.0572 18.9428C0.536497 18.4221 0.536497 17.5779 1.0572 17.0572L8.11439 10L1.0572 2.94281C0.536497 2.42212 0.536497 1.5779 1.0572 1.0572Z" fill="#FF8A65" stroke="#FF8A65" stroke-linecap="round" stroke-linejoin="round"/>
</svg>
