<svg width="22" height="41" viewBox="0 0 22 41" fill="none" xmlns="http://www.w3.org/2000/svg">
<g clip-path="url(#clip0_1_1063)">
<path d="M21.2383 11.5964H15.9106C15.7187 11.5964 15.5345 11.6727 15.3988 11.8084C15.263 11.9442 15.1868 12.1283 15.1868 12.3203V29.9972C15.2493 31.3483 14.8398 32.679 14.0286 33.7613C13.6558 34.2146 13.1872 34.5796 12.6565 34.8303C12.1258 35.0809 11.5463 35.2109 10.9594 35.2109C10.3725 35.2109 9.79289 35.0809 9.26221 34.8303C8.73154 34.5796 8.26297 34.2146 7.89016 33.7613C7.07895 32.679 6.66949 31.3483 6.73197 29.9972V12.2768C6.73197 12.0849 6.6557 11.9007 6.51995 11.765C6.3842 11.6292 6.20008 11.553 6.0081 11.553H0.680413C0.488431 11.553 0.304311 11.6292 0.168559 11.765C0.0328071 11.9007 -0.043457 12.0849 -0.043457 12.2768V29.3023C-0.043457 32.8106 0.95066 35.6385 2.93889 37.786C5.07284 39.8556 7.92875 41.0131 10.9015 41.0131C13.8742 41.0131 16.7301 39.8556 18.864 37.786C20.8716 35.6434 21.8753 32.8155 21.8753 29.3023V12.2768C21.8753 12.0849 21.7991 11.9007 21.6633 11.765C21.5276 11.6292 21.3434 11.553 21.1515 11.553L21.2383 11.5964Z" fill="#2368FF"/>
<path d="M6.00812 0H0.72387C0.324088 0 0 0.324088 0 0.72387V5.06709C0 5.46687 0.324088 5.79096 0.72387 5.79096H6.00812C6.4079 5.79096 6.73199 5.46687 6.73199 5.06709V0.72387C6.73199 0.324088 6.4079 0 6.00812 0Z" fill="#2368FF"/>
<path d="M21.2094 0H15.9252C15.5254 0 15.2013 0.324088 15.2013 0.72387V5.06709C15.2013 5.46687 15.5254 5.79096 15.9252 5.79096H21.2094C21.6092 5.79096 21.9333 5.46687 21.9333 5.06709V0.72387C21.9333 0.324088 21.6092 0 21.2094 0Z" fill="#2368FF"/>
</g>
<defs>
<clipPath id="clip0_1_1063">
<rect width="21.9333" height="41" fill="white"/>
</clipPath>
</defs>
</svg>
