<svg width="27" height="27" viewBox="0 0 27 27" fill="none" xmlns="http://www.w3.org/2000/svg">
<path d="M13.5 25.5833C6.82638 25.5833 1.41667 20.1736 1.41667 13.5C1.41667 6.82637 6.82638 1.41666 13.5 1.41666C20.1736 1.41666 25.5833 6.82637 25.5833 13.5C25.5833 20.1736 20.1736 25.5833 13.5 25.5833ZM13.5 23.1667C16.0638 23.1667 18.5225 22.1482 20.3354 20.3354C22.1482 18.5225 23.1667 16.0638 23.1667 13.5C23.1667 10.9362 22.1482 8.47748 20.3354 6.66462C18.5225 4.85177 16.0638 3.83332 13.5 3.83332C10.9362 3.83332 8.47749 4.85177 6.66464 6.66462C4.85179 8.47748 3.83334 10.9362 3.83334 13.5C3.83334 16.0638 4.85179 18.5225 6.66464 20.3354C8.47749 22.1482 10.9362 23.1667 13.5 23.1667Z" fill="#2368FF" stroke="#2368FF"/>
</svg>
